<mxfile host="app.diagrams.net" modified="2021-05-22T05:10:20.859Z" agent="5.0 (Windows NT 10.0; Win64; x64) AppleWebKit/537.36 (KHTML, like Gecko) Chrome/90.0.4430.212 Safari/537.36" etag="AjQwPHBZQV7FpSnFIjz1" version="14.6.13" type="github">
  <diagram id="lHpqByDPsYC-pJW8qtHK" name="Page-1">
    <mxGraphModel dx="1038" dy="548" grid="1" gridSize="10" guides="1" tooltips="1" connect="1" arrows="1" fold="1" page="1" pageScale="1" pageWidth="827" pageHeight="1169" math="0" shadow="0">
      <root>
        <mxCell id="0" />
        <mxCell id="1" parent="0" />
        <mxCell id="MmofvMymmpq4Su2M5fxJ-1" value="" style="rounded=0;whiteSpace=wrap;html=1;" parent="1" vertex="1">
          <mxGeometry x="20" y="160" width="791" height="270" as="geometry" />
        </mxCell>
        <mxCell id="MmofvMymmpq4Su2M5fxJ-2" value="&lt;font style=&quot;font-size: 18px&quot;&gt;Inertia Trader&amp;nbsp; UAT Server&lt;/font&gt;" style="text;html=1;strokeColor=none;fillColor=none;align=center;verticalAlign=middle;whiteSpace=wrap;rounded=0;" parent="1" vertex="1">
          <mxGeometry x="464.5" y="90" width="262" height="50" as="geometry" />
        </mxCell>
        <mxCell id="MmofvMymmpq4Su2M5fxJ-3" value="&lt;font style=&quot;font-size: 14px&quot;&gt;Web API&lt;/font&gt;" style="rounded=0;whiteSpace=wrap;html=1;" parent="1" vertex="1">
          <mxGeometry x="70" y="270" width="120" height="60" as="geometry" />
        </mxCell>
        <mxCell id="MmofvMymmpq4Su2M5fxJ-4" value="&lt;font style=&quot;font-size: 14px&quot;&gt;DB &lt;br&gt;Master&lt;/font&gt;" style="shape=cylinder3;whiteSpace=wrap;html=1;boundedLbl=1;backgroundOutline=1;size=15;" parent="1" vertex="1">
          <mxGeometry x="670" y="180" width="60" height="80" as="geometry" />
        </mxCell>
        <mxCell id="MmofvMymmpq4Su2M5fxJ-5" value="&lt;font style=&quot;font-size: 14px&quot;&gt;DB&lt;br&gt;Slave&lt;/font&gt;" style="shape=cylinder3;whiteSpace=wrap;html=1;boundedLbl=1;backgroundOutline=1;size=15;" parent="1" vertex="1">
          <mxGeometry x="670" y="330" width="60" height="80" as="geometry" />
        </mxCell>
        <mxCell id="MmofvMymmpq4Su2M5fxJ-14" style="edgeStyle=orthogonalEdgeStyle;rounded=0;orthogonalLoop=1;jettySize=auto;html=1;entryX=0;entryY=0.5;entryDx=0;entryDy=0;entryPerimeter=0;" parent="1" source="MmofvMymmpq4Su2M5fxJ-8" target="MmofvMymmpq4Su2M5fxJ-4" edge="1">
          <mxGeometry relative="1" as="geometry">
            <Array as="points">
              <mxPoint x="640" y="300" />
              <mxPoint x="640" y="220" />
            </Array>
          </mxGeometry>
        </mxCell>
        <mxCell id="MmofvMymmpq4Su2M5fxJ-8" value="&lt;font style=&quot;font-size: 14px&quot;&gt;Inertia KKC Trader&lt;/font&gt;" style="shape=process;whiteSpace=wrap;html=1;backgroundOutline=1;" parent="1" vertex="1">
          <mxGeometry x="420" y="260" width="168" height="80" as="geometry" />
        </mxCell>
        <mxCell id="MmofvMymmpq4Su2M5fxJ-15" value="" style="endArrow=classic;startArrow=classic;html=1;exitX=0.5;exitY=0;exitDx=0;exitDy=0;exitPerimeter=0;" parent="1" source="MmofvMymmpq4Su2M5fxJ-5" target="MmofvMymmpq4Su2M5fxJ-4" edge="1">
          <mxGeometry width="50" height="50" relative="1" as="geometry">
            <mxPoint x="670" y="320" as="sourcePoint" />
            <mxPoint x="720" y="270" as="targetPoint" />
          </mxGeometry>
        </mxCell>
        <mxCell id="MmofvMymmpq4Su2M5fxJ-16" value="" style="endArrow=classic;startArrow=classic;html=1;exitX=1;exitY=0.5;exitDx=0;exitDy=0;entryX=0;entryY=0.5;entryDx=0;entryDy=0;" parent="1" source="MmofvMymmpq4Su2M5fxJ-3" target="MmofvMymmpq4Su2M5fxJ-8" edge="1">
          <mxGeometry width="50" height="50" relative="1" as="geometry">
            <mxPoint x="390" y="280" as="sourcePoint" />
            <mxPoint x="440" y="230" as="targetPoint" />
          </mxGeometry>
        </mxCell>
        <mxCell id="MmofvMymmpq4Su2M5fxJ-17" value="&lt;font style=&quot;font-size: 14px&quot;&gt;Socket&lt;/font&gt;" style="edgeLabel;html=1;align=center;verticalAlign=middle;resizable=0;points=[];" parent="MmofvMymmpq4Su2M5fxJ-16" vertex="1" connectable="0">
          <mxGeometry x="-0.0961" y="-1" relative="1" as="geometry">
            <mxPoint as="offset" />
          </mxGeometry>
        </mxCell>
        <mxCell id="MmofvMymmpq4Su2M5fxJ-18" value="&lt;font style=&quot;font-size: 14px&quot;&gt;Front-end&lt;/font&gt;" style="rounded=0;whiteSpace=wrap;html=1;" parent="1" vertex="1">
          <mxGeometry x="70" y="20" width="120" height="60" as="geometry" />
        </mxCell>
        <mxCell id="MmofvMymmpq4Su2M5fxJ-20" value="" style="endArrow=classic;startArrow=classic;html=1;exitX=0.5;exitY=0;exitDx=0;exitDy=0;entryX=0.5;entryY=1;entryDx=0;entryDy=0;" parent="1" source="MmofvMymmpq4Su2M5fxJ-3" target="MmofvMymmpq4Su2M5fxJ-18" edge="1">
          <mxGeometry width="50" height="50" relative="1" as="geometry">
            <mxPoint x="100" y="270" as="sourcePoint" />
            <mxPoint x="150" y="220" as="targetPoint" />
          </mxGeometry>
        </mxCell>
        <mxCell id="MmofvMymmpq4Su2M5fxJ-21" value="&lt;font style=&quot;font-size: 14px&quot;&gt;API&lt;/font&gt;" style="text;html=1;strokeColor=none;fillColor=none;align=center;verticalAlign=middle;whiteSpace=wrap;rounded=0;" parent="1" vertex="1">
          <mxGeometry x="140" y="180" width="40" height="20" as="geometry" />
        </mxCell>
        <mxCell id="n7Qf2KEigJistqAdHkbx-1" style="edgeStyle=orthogonalEdgeStyle;rounded=0;orthogonalLoop=1;jettySize=auto;html=1;exitX=0.5;exitY=1;exitDx=0;exitDy=0;" edge="1" parent="1" source="MmofvMymmpq4Su2M5fxJ-1" target="MmofvMymmpq4Su2M5fxJ-1">
          <mxGeometry relative="1" as="geometry" />
        </mxCell>
      </root>
    </mxGraphModel>
  </diagram>
</mxfile>
